<?xml version="1.0" encoding="UTF-8" standalone="no"?>
<!DOCTYPE svg PUBLIC "-//W3C//DTD SVG 1.1//EN" "http://www.w3.org/Graphics/SVG/1.1/DTD/svg11.dtd">
<svg width="100%" height="100%" viewBox="0 0 1806 150" version="1.1" xmlns="http://www.w3.org/2000/svg" xmlns:xlink="http://www.w3.org/1999/xlink" xml:space="preserve" xmlns:serif="http://www.serif.com/" style="fill-rule:evenodd;clip-rule:evenodd;stroke-linejoin:round;stroke-miterlimit:1.41421;">
    <g transform="matrix(1,0,0,1,-2796.99,-1411.5)">
        <g transform="matrix(2.73222,0,0,1.45631,-6399.68,-598.209)">
            <path d="M4027,1428.29C4012.79,1428.29 4001.26,1406.67 4001.26,1380C3895.79,1380 3497.21,1380 3391.74,1380C3391.74,1406.67 3380.21,1428.29 3366,1428.29C3366,1441.74 3366,1455.49 3366,1465.83C3371.05,1465.83 3375.15,1473.52 3375.15,1483C3448.81,1483 3944.19,1483 4017.85,1483C4017.85,1473.52 4021.95,1465.83 4027,1465.83C4027,1455.49 4027,1441.74 4027,1428.29Z" style="fill:rgb(72,72,72);"/>
        </g>
    </g>
</svg>
