<?xml version="1.0" encoding="UTF-8" standalone="no"?>
<!DOCTYPE svg PUBLIC "-//W3C//DTD SVG 1.1//EN" "http://www.w3.org/Graphics/SVG/1.1/DTD/svg11.dtd">
<svg width="100%" height="100%" viewBox="0 0 380 342" version="1.1" xmlns="http://www.w3.org/2000/svg" xmlns:xlink="http://www.w3.org/1999/xlink" xml:space="preserve" xmlns:serif="http://www.serif.com/" style="fill-rule:evenodd;clip-rule:evenodd;stroke-linejoin:round;stroke-miterlimit:1.41421;">
    <g transform="matrix(1,0,0,1,-2939.34,-1219.93)">
        <g>
            <g transform="matrix(0.347407,0.347407,0.347407,-0.347407,1998.44,697.562)">
                <g transform="matrix(-0.707107,0.707107,-0.707107,-0.707107,5402.2,-709.613)">
                    <path d="M2807.5,631C2717.81,631 2645,703.814 2645,793.5C2645,883.186 2717.81,956 2807.5,956C2780.59,918.083 2758.75,858.323 2758.75,793.5C2758.75,728.677 2780.59,668.917 2807.5,631Z" style="fill:rgb(166,166,166);"/>
                </g>
                <g transform="matrix(-0.965926,0.258819,-0.258819,-0.965926,5700.27,796.386)">
                    <path d="M2807.5,631C2717.81,631 2645,703.814 2645,793.5C2645,883.186 2717.81,956 2807.5,956C2780.59,918.083 2758.75,858.323 2758.75,793.5C2758.75,728.677 2780.59,668.917 2807.5,631Z" style="fill:rgb(166,166,166);"/>
                </g>
                <g transform="matrix(-0.965926,-0.258819,0.258819,-0.965926,5205.41,2249.65)">
                    <path d="M2807.5,631C2717.81,631 2645,703.814 2645,793.5C2645,883.186 2717.81,956 2807.5,956C2765.35,927.292 2731.13,864.361 2731.13,793.5C2731.13,722.639 2765.35,659.708 2807.5,631Z" style="fill:rgb(166,166,166);"/>
                </g>
                <g transform="matrix(-0.679617,-0.733567,0.733567,-0.679617,3947.73,3308.8)">
                    <path d="M2807.5,631C2717.81,631 2645,703.814 2645,793.5C2645,883.186 2717.81,956 2807.5,956C2762.66,928.917 2726.25,865.426 2726.25,793.5C2726.25,721.574 2762.66,658.083 2807.5,631Z" style="fill:rgb(166,166,166);"/>
                </g>
                <g transform="matrix(-0.258819,0.965926,-0.965926,-0.258819,4391.61,-1864.96)">
                    <path d="M2807.5,631C2717.81,631 2645,703.814 2645,793.5C2645,883.186 2717.81,956 2807.5,956C2780.59,918.083 2758.75,858.323 2758.75,793.5C2758.75,728.677 2780.59,668.917 2807.5,631Z" style="fill:rgb(166,166,166);"/>
                </g>
                <g transform="matrix(1.43923,1.43923,1.43923,-1.43923,-3880.17,-1872.26)">
                    <path d="M3173.93,1300.16C3194.84,1313.32 3247.3,1367.07 3198.33,1418C3153.84,1464.28 3134.29,1509.3 3178,1542C3125.31,1523.17 3141.14,1462.42 3152.89,1444C3125.27,1449.23 3141,1426.74 3141,1426.74C3140.49,1440.74 3154.57,1443.77 3161,1437C3167.1,1430.59 3218.93,1364.6 3173.93,1300.16Z" style="fill:rgb(134,117,87);"/>
                </g>
            </g>
            <g transform="matrix(-0.347407,0.347407,-0.347407,-0.347407,4259.56,697.562)">
                <g transform="matrix(-0.707107,0.707107,-0.707107,-0.707107,5402.2,-709.613)">
                    <path d="M2807.5,631C2717.81,631 2645,703.814 2645,793.5C2645,883.186 2717.81,956 2807.5,956C2780.59,918.083 2758.75,858.323 2758.75,793.5C2758.75,728.677 2780.59,668.917 2807.5,631Z" style="fill:rgb(166,166,166);"/>
                </g>
                <g transform="matrix(-0.965926,0.258819,-0.258819,-0.965926,5700.27,796.386)">
                    <path d="M2807.5,631C2717.81,631 2645,703.814 2645,793.5C2645,883.186 2717.81,956 2807.5,956C2771.79,923.398 2742.81,861.808 2742.81,793.5C2742.81,725.192 2771.79,663.602 2807.5,631Z" style="fill:rgb(166,166,166);"/>
                    <clipPath id="_clip1">
                        <path d="M2807.5,631C2717.81,631 2645,703.814 2645,793.5C2645,883.186 2717.81,956 2807.5,956C2771.79,923.398 2742.81,861.808 2742.81,793.5C2742.81,725.192 2771.79,663.602 2807.5,631Z"/>
                    </clipPath>
                    <g clip-path="url(#_clip1)">
                        <g transform="matrix(1.01769,1.76269,-1.76269,1.01769,2194.58,-5973.63)">
                            <path d="M2968.51,1370.5C2961.05,1439.49 3028.47,1498.02 3095.53,1445.9" style="fill:rgb(134,117,87);"/>
                        </g>
                    </g>
                </g>
                <g transform="matrix(-0.965926,-0.258819,0.258819,-0.965926,5205.41,2249.65)">
                    <path d="M2807.5,631C2717.81,631 2645,703.814 2645,793.5C2645,883.186 2717.81,956 2807.5,956C2778.8,919.167 2755.5,859.033 2755.5,793.5C2755.5,727.967 2778.8,667.833 2807.5,631Z" style="fill:rgb(166,166,166);"/>
                    <clipPath id="_clip2">
                        <path d="M2807.5,631C2717.81,631 2645,703.814 2645,793.5C2645,883.186 2717.81,956 2807.5,956C2778.8,919.167 2755.5,859.033 2755.5,793.5C2755.5,727.967 2778.8,667.833 2807.5,631Z"/>
                    </clipPath>
                    <g clip-path="url(#_clip2)">
                        <g transform="matrix(1.76269,1.01769,-1.01769,1.76269,-1188.12,-4738.77)">
                            <path d="M3019.05,1330.71C3000.62,1380.92 3007.25,1444.34 3091.72,1446.6C3106.39,1397.6 3030.76,1298.83 3019.05,1330.71Z" style="fill:rgb(134,117,87);"/>
                        </g>
                    </g>
                </g>
                <g transform="matrix(-0.659271,-0.751905,1.04503,-0.916284,3595.38,3589.07)">
                    <path d="M2807.5,631C2717.81,631 2645,703.814 2645,793.5C2645,883.186 2717.81,956 2807.5,956C2762.66,928.917 2726.25,865.426 2726.25,793.5C2726.25,721.574 2762.66,658.083 2807.5,631Z" style="fill:rgb(166,166,166);"/>
                </g>
                <g transform="matrix(-0.258819,0.965926,-0.965926,-0.258819,4391.61,-1864.96)">
                    <path d="M2807.5,631C2717.81,631 2645,703.814 2645,793.5C2645,883.186 2717.81,956 2807.5,956C2780.59,918.083 2758.75,858.323 2758.75,793.5C2758.75,728.677 2780.59,668.917 2807.5,631Z" style="fill:rgb(166,166,166);"/>
                </g>
            </g>
            <path d="M3088.62,1247C3076.07,1267.97 3066.77,1296.63 3064.7,1328.16C3061.55,1376.11 3075.85,1419.68 3095.92,1440.18C3100.85,1440.35 3113.82,1434.74 3111.02,1446.5C3109.22,1444.62 3105.11,1441.94 3101.02,1443.98C3116.64,1462.42 3122.02,1492.59 3103.24,1512.81C3109.82,1489.82 3103,1469 3103,1469C3103,1469 3098.88,1447.59 3072,1432C2991.14,1355.9 3067.52,1266.69 3088.62,1247L3088.62,1247Z" style="fill:rgb(134,117,87);"/>
        </g>
    </g>
</svg>
